<svg xmlns="http://www.w3.org/2000/svg" viewBox="0 0 1440 900" role="img" aria-label="Diseño gráfico">
  <defs>
    <linearGradient id="a" x1="0" y1="0" x2="1" y2="1"><stop offset="0" stop-color="#0057ff"/><stop offset="1" stop-color="#3380ff"/></linearGradient>
    <linearGradient id="b" x1="0" y1="1" x2="1" y2="0"><stop offset="0" stop-color="#8899cc"/><stop offset="1" stop-color="#0057ff"/></linearGradient>
    <pattern id="grid" width="48" height="48" patternUnits="userSpaceOnUse"><path d="M48 0H0v48" fill="none" stroke="#f2f2f8" stroke-opacity=".05"/></pattern>
  </defs>
  <rect width="1440" height="900" fill="#0a0a0f"/>
  <rect width="1440" height="900" fill="url(#grid)"/>
  <rect x="180" y="150" width="340" height="480" rx="6" fill="url(#a)" transform="rotate(-6 350 390)"/>
  <rect x="560" y="120" width="340" height="480" rx="6" fill="#f2f2f8" transform="rotate(3 730 360)"/>
  <circle cx="730" cy="300" r="90" fill="#0a0a0f"/>
  <rect x="940" y="180" width="340" height="480" rx="6" fill="url(#b)" transform="rotate(7 1110 420)"/>
  <path d="M1000 300h220M1000 340h160M1000 380h190" stroke="#0a0a0f" stroke-width="14" transform="rotate(7 1110 420)"/>
  <text x="220" y="760" font-family="Space Grotesk, Arial, sans-serif" font-size="92" font-weight="700" fill="#f2f2f8">GRAPHIC/DESIGN</text>
  <text x="224" y="810" font-family="JetBrains Mono, monospace" font-size="26" fill="#8899cc">// posters · branding · social</text>
</svg>
